<svg xmlns="http://www.w3.org/2000/svg" width="1200" height="680" viewBox="0 0 1200 680" role="img" aria-label="SRE Agent Azure Lab architecture overview">
  <defs>
    <style>
      .title{font:700 30px Segoe UI,Arial,sans-serif;fill:#0f172a}
      .h{font:700 16px Segoe UI,Arial,sans-serif;fill:#0f172a}
      .t{font:500 14px Segoe UI,Arial,sans-serif;fill:#334155}
      .small{font:600 12px Segoe UI,Arial,sans-serif;fill:#475569}
      .rg{fill:#f8fafc;stroke:#94a3b8;stroke-width:2;rx:10}
      .card{fill:#ffffff;stroke:#cbd5e1;stroke-width:1.5;rx:8}
      .line{stroke:#2563eb;stroke-width:3;fill:none;marker-end:url(#arrow)}
      .soft{fill:#ecfeff;stroke:#06b6d4}
      .green{fill:#f0fdf4;stroke:#22c55e}
      .violet{fill:#f5f3ff;stroke:#8b5cf6}
      .amber{fill:#fffbeb;stroke:#f59e0b}
    </style>
    <marker id="arrow" markerWidth="10" markerHeight="10" refX="8" refY="3" orient="auto" markerUnits="strokeWidth">
      <path d="M0,0 L0,6 L9,3 z" fill="#2563eb"/>
    </marker>
  </defs>
  <rect width="1200" height="680" fill="#eef6ff"/>
  <text x="48" y="58" class="title">SRE Agent Azure Lab Architecture</text>
  <text x="50" y="86" class="t">Terraform provisions Windows and app-platform targets. Azure Monitor observes. Automation supports guided remediation.</text>

  <rect x="35" y="125" width="205" height="455" class="rg"/>
  <text x="58" y="160" class="h">rg-network</text>
  <rect x="58" y="190" width="160" height="75" class="card soft"/>
  <text x="78" y="220" class="h">Hub VNet</text>
  <text x="78" y="245" class="small">ops subnet</text>
  <rect x="58" y="295" width="160" height="75" class="card soft"/>
  <text x="78" y="325" class="h">Workload VNet</text>
  <text x="78" y="350" class="small">web + app subnets</text>
  <rect x="58" y="400" width="160" height="75" class="card soft"/>
  <text x="78" y="430" class="h">Optional Network</text>
  <text x="78" y="455" class="small">Firewall, VPN, NSGs</text>

  <rect x="265" y="125" width="205" height="455" class="rg"/>
  <text x="288" y="160" class="h">rg-windows</text>
  <rect x="288" y="190" width="160" height="75" class="card green"/>
  <text x="308" y="220" class="h">Jumpbox</text>
  <text x="308" y="245" class="small">private admin target</text>
  <rect x="288" y="295" width="160" height="75" class="card green"/>
  <text x="308" y="325" class="h">IIS VMs</text>
  <text x="308" y="350" class="small">incident targets</text>
  <rect x="288" y="400" width="160" height="75" class="card green"/>
  <text x="308" y="430" class="h">Optional VMs</text>
  <text x="308" y="455" class="small">DC, SQL/file</text>

  <rect x="495" y="125" width="205" height="455" class="rg"/>
  <text x="518" y="160" class="h">rg-apps</text>
  <rect x="518" y="190" width="160" height="60" class="card violet"/>
  <text x="538" y="225" class="h">AKS</text>
  <rect x="518" y="270" width="160" height="60" class="card violet"/>
  <text x="538" y="305" class="h">App Service</text>
  <rect x="518" y="350" width="160" height="60" class="card violet"/>
  <text x="538" y="385" class="h">Container Apps</text>
  <rect x="518" y="430" width="160" height="60" class="card violet"/>
  <text x="538" y="465" class="h">Functions</text>

  <rect x="725" y="125" width="225" height="455" class="rg"/>
  <text x="748" y="160" class="h">rg-sre</text>
  <rect x="748" y="190" width="180" height="65" class="card"/>
  <text x="770" y="218" class="h">Log Analytics</text>
  <text x="770" y="240" class="small">Perf, Event, Heartbeat</text>
  <rect x="748" y="275" width="180" height="65" class="card"/>
  <text x="770" y="303" class="h">DCR + AMA</text>
  <text x="770" y="325" class="small">VM telemetry</text>
  <rect x="748" y="360" width="180" height="65" class="card"/>
  <text x="770" y="388" class="h">Alerts + Workbooks</text>
  <text x="770" y="410" class="small">Metric, KQL, health</text>
  <rect x="748" y="445" width="180" height="65" class="card"/>
  <text x="770" y="473" class="h">Automation</text>
  <text x="770" y="495" class="small">Runbooks, webhooks</text>

  <rect x="980" y="125" width="180" height="455" class="rg"/>
  <text x="1003" y="160" class="h">rg-governance</text>
  <rect x="1003" y="205" width="134" height="70" class="card amber"/>
  <text x="1025" y="235" class="h">Policy</text>
  <text x="1025" y="255" class="small">tags + locations</text>
  <rect x="1003" y="320" width="134" height="70" class="card amber"/>
  <text x="1025" y="350" class="h">Budget</text>
  <text x="1025" y="370" class="small">cost guardrail</text>
  <rect x="1003" y="435" width="134" height="70" class="card amber"/>
  <text x="1025" y="465" class="h">Update + Backup</text>
  <text x="1025" y="485" class="small">optional controls</text>

  <path class="line" d="M218 228 H288"/>
  <path class="line" d="M448 330 H748"/>
  <path class="line" d="M678 350 H748"/>
  <path class="line" d="M837 340 V360"/>
  <path class="line" d="M837 425 V445"/>
  <path class="line" d="M928 392 H1003"/>
</svg>
